<?xml version="1.0" standalone="no"?><!DOCTYPE svg PUBLIC "-//W3C//DTD SVG 1.1//EN"
  "http://www.w3.org/Graphics/SVG/1.1/DTD/svg11.dtd">
<svg t="1617195472725" class="icon" viewBox="0 0 1024 1024" version="1.1" xmlns="http://www.w3.org/2000/svg" p-id="6848"
     xmlns:xlink="http://www.w3.org/1999/xlink" width="64" height="64">
  <defs>
    <style type="text/css"></style>
  </defs>
  <path
    d="M928 486.4v416c0 64-51.2 121.6-115.2 121.6H224c-76.8 0-128-57.6-128-128V473.6c0-64 51.2-121.6 121.6-121.6h38.4c0-76.8-6.4-160 38.4-230.4C352 32 467.2-19.2 576 12.8c108.8 32 192 121.6 192 236.8v102.4c0 12.8 6.4 12.8 12.8 12.8 19.2 0 38.4 0 64 6.4 44.8 6.4 83.2 57.6 83.2 115.2z m-281.6-128c12.8 0 19.2 0 19.2-19.2V249.6c0-83.2-70.4-153.6-153.6-153.6-83.2 6.4-153.6 76.8-153.6 160v83.2c0 12.8 0 19.2 19.2 19.2h268.8z m-147.2 441.6l192-172.8c12.8-12.8 12.8-25.6 0-32-12.8-12.8-25.6-12.8-38.4 0L480 755.2l-96-89.6c-12.8-12.8-25.6-12.8-38.4 0-12.8 12.8-12.8 25.6 0 32l115.2 102.4c6.4 19.2 19.2 19.2 38.4 0-6.4 6.4-6.4 6.4 0 0z"
    p-id="6849"></path>
</svg>
