<svg t="1618306653528" class="icon" viewBox="0 0 1024 1024" version="1.1" xmlns="http://www.w3.org/2000/svg" p-id="6208"
     width="64" height="64">
  <path
    d="M519.6288 0a192.3072 192.3072 0 0 0-192.1024 185.856H84.992a48.896 48.896 0 1 0 0 97.6896h54.016v547.84c0 102.8096 69.8368 186.8288 155.904 186.8288h439.2448c86.0672 0 155.904-83.5072 155.904-186.88V284.16h48.896a48.896 48.896 0 1 0 0-97.792h-227.7376A191.5392 191.5392 0 0 0 519.6288 0zM412.3648 177.1008c3.584-49.7664 46.6432-88.576 99.84-88.576 53.248 0 96.3584 38.7584 99.3792 88.576h-199.168zM300.3904 929.1264c-30.976 0-65.0752-39.168-65.0752-95.0272V287.744h575.488V834.56c0 55.9616-34.0992 95.0784-65.024 95.0784H300.3392v-0.512z"
    fill="#d81e06" p-id="6209"></path>
  <path
    d="M368.128 796.8256c24.3712 0 44.2368-21.6576 44.2368-48.8448V469.3504c0-27.136-19.8656-48.7936-44.2368-48.7936s-44.288 21.6576-44.288 48.7936v278.6304c0 27.136 19.3536 48.8448 44.288 48.8448z m154.9312 0c24.3712 0 44.288-21.6576 44.288-48.8448V469.3504c0-27.136-19.968-48.7936-44.288-48.7936-24.3712 0-44.288 21.6576-44.288 48.7936v278.6304c0 27.136 19.968 48.8448 44.288 48.8448z m132.8128 0c24.32 0 44.2368-21.6576 44.2368-48.8448V469.3504c0-27.136-19.9168-48.7936-44.2368-48.7936-24.3712 0-44.288 21.6576-44.288 48.7936v278.6304c0 27.136 19.3536 48.8448 44.288 48.8448z"
    fill="#d81e06" p-id="6210"></path>
</svg>
