<svg t="1618218306603" class="icon" viewBox="0 0 1024 1024" version="1.1" xmlns="http://www.w3.org/2000/svg" p-id="1922"
     width="64" height="64">
  <path
    d="M684.301474 3.880421l279.44421 279.444211h-0.053895v623.939368a112.963368 112.963368 0 0 1-112.963368 112.855579H173.325474a112.963368 112.963368 0 0 1-112.64-104.825263l-0.269474-8.084211V116.789895C60.362105 54.433684 110.969263 3.880421 173.325474 3.880421h510.922105z m-396.934737 407.983158h-89.465263V673.684211h57.344v-80.734316h32.067368c18.378105 0 34.115368-1.616842 47.157895-4.742737 13.096421-3.125895 23.767579-8.353684 32.067368-15.629474a62.517895 62.517895 0 0 0 18.162527-28.510316 142.282105 142.282105 0 0 0 5.605052-43.169684c0-15.845053-1.670737-29.372632-5.066105-40.582737a59.553684 59.553684 0 0 0-16.976842-27.486315 73.728 73.728 0 0 0-31.690105-15.898948 201.350737 201.350737 0 0 0-49.205895-5.066105z m239.184842 0H437.086316V673.684211h57.344v-80.734316h32.121263c18.324211 0 34.061474-1.616842 47.157895-4.742737 13.042526-3.125895 23.713684-8.353684 32.067368-15.629474a62.517895 62.517895 0 0 0 18.054737-28.510316 142.282105 142.282105 0 0 0 5.712842-43.169684c0-15.845053-1.724632-29.372632-5.12-40.582737a59.553684 59.553684 0 0 0-16.976842-27.486315 73.728 73.728 0 0 0-31.690105-15.898948 201.350737 201.350737 0 0 0-49.205895-5.066105z m321.751579 0h-194.236632v50.176h68.661895V673.684211h56.912842V462.039579h68.71579v-50.176z m-568.535579 45.271579c9.593263 0 17.677474 0.754526 24.360421 2.263579a37.402947 37.402947 0 0 1 16.222316 7.545263 28.779789 28.779789 0 0 1 8.892631 13.958737c1.724632 5.766737 2.586947 12.826947 2.586948 21.126737 0 8.784842-0.862316 16.006737-2.586948 21.665684a28.833684 28.833684 0 0 1-8.892631 13.797053 35.732211 35.732211 0 0 1-16.060632 7.329684 121.263158 121.263158 0 0 1-24.522105 2.101894h-24.468211V457.135158z m239.238737 0c9.539368 0 17.623579 0.754526 24.306526 2.263579a37.402947 37.402947 0 0 1 16.222316 7.545263 28.779789 28.779789 0 0 1 8.892631 13.958737c1.724632 5.766737 2.586947 12.826947 2.586948 21.126737 0 8.784842-0.862316 16.006737-2.640842 21.665684a28.833684 28.833684 0 0 1-8.838737 13.797053 35.732211 35.732211 0 0 1-16.006737 7.329684 121.263158 121.263158 0 0 1-24.576 2.101894h-24.46821V457.135158z"
    fill="#FF6701" p-id="1923"></path>
  <path
    d="M684.247579 226.842947V3.772632l279.44421 279.552h-223.12421c-31.097263-0.053895-56.32-25.330526-56.32-56.481685z"
    fill="#D15603" p-id="1924"></path>
</svg>
