<svg viewBox="0 0 1024 1024" version="1.1" xmlns="http://www.w3.org/2000/svg">
  1617351027299
  <path
    d="M0 725.307077v128A170.692923 170.692923 0 0 0 170.692923 1024h682.692923A170.692923 170.692923 0 0 0 1024 853.307077V170.692923A170.692923 170.692923 0 0 0 853.307077 0H170.692923A170.692923 170.692923 0 0 0 0 170.692923v128h85.307077V170.692923a85.307077 85.307077 0 0 1 85.385846-85.385846h682.692923a85.307077 85.307077 0 0 1 85.307077 85.307077v682.692923a85.307077 85.307077 0 0 1-85.307077 85.307077H170.692923a85.307077 85.307077 0 0 1-85.307077-85.307077V725.307077z"
    fill="#2c2c2c"/>
  <path d="M0 469.307077h682.692923a42.692923 42.692923 0 0 1 0 85.307077H0z" fill="#2c2c2c"/>
  <path d="M490.732308 256l234.653538 234.653538-63.960615 64.039385-234.732308-234.653538z"
        fill="#2c2c2c"/>
  <path d="M490.732308 768l234.653538-234.653538-64.039384-64.039385-234.653539 234.653538z"
        fill="#2c2c2c"/>
</svg>
