<svg t="1618391664543" class="icon" viewBox="0 0 1024 1024" version="1.1" xmlns="http://www.w3.org/2000/svg" p-id="7714"
     width="64" height="64">
  <path
    d="M512 1024C229.180952 1024 0 794.819048 0 512S229.180952 0 512 0s512 229.180952 512 512-229.180952 512-512 512z m-24.380952-268.190476v73.142857h73.142857v-73.142857h-73.142857z m73.142857-48.761905c0-34.133333 17.066667-58.514286 73.142857-104.838095l4.87619-4.876191c75.580952-65.828571 104.838095-102.4 104.838096-170.666666 0-121.904762-97.52381-219.428571-219.428572-219.428572s-219.428571 97.52381-219.428571 219.428572h73.142857c0-80.457143 65.828571-146.285714 146.285714-146.285715s146.285714 65.828571 146.285714 146.285715c0 39.009524-19.504762 63.390476-78.019047 114.590476l-4.876191 4.87619c-70.704762 60.952381-99.961905 97.52381-99.961904 160.914286h73.142857z"
    p-id="7715" fill="#2c2c2c"></path>
</svg>
