<svg class="icon" viewBox="0 0 1024 1024" version="1.1" xmlns="http://www.w3.org/2000/svg"
     width="64" height="64">
  <path d="M507.733333 463.36m-272.64 0a272.64 272.64 0 1 0 545.28 0 272.64 272.64 0 1 0-545.28 0Z" fill="#C1D9F7"
  />
  <path
    d="M433.493333 810.666667a347.733333 347.733333 0 1 1 347.733334-347.306667A347.733333 347.733333 0 0 1 433.493333 810.666667z m0-659.2a311.893333 311.893333 0 1 0 311.893334 311.893333 311.893333 311.893333 0 0 0-311.893334-311.893333z"
    fill="#3982F7"/>
  <path
    d="M640 575.146667a16.64 16.64 0 0 1-7.68 0 17.92 17.92 0 0 1-8.533333-23.893334 209.066667 209.066667 0 0 0-50.346667-244.48 17.493333 17.493333 0 1 1 23.893333-28.16 244.053333 244.053333 0 0 1 59.306667 286.293334 18.346667 18.346667 0 0 1-16.64 10.24zM927.573333 892.586667l-188.16-187.733334A393.386667 393.386667 0 0 1 682.666667 762.026667l187.306666 187.306666a39.68 39.68 0 0 0 56.746667 0 40.106667 40.106667 0 0 0 0.853333-56.746666z"
    fill="#3982F7"/>
</svg>
