<svg t="1617467782155" class="icon" viewBox="0 0 1024 1024" version="1.1" xmlns="http://www.w3.org/2000/svg" p-id="3705">
  <path
    d="M154.1 633.3c19.1-15.1 46.8-11.7 61.8 7.4L330 785.9V108.2c0-24.3 19.7-44 44-44s44 19.7 44 44v804.9c0 18.8-11.9 35.4-29.6 41.6-4.6 1.6-9.5 2.4-14.4 2.4-13.2 0-26.1-6-34.6-16.8L146.7 695.1c-15-19.1-11.7-46.8 7.4-61.8z"
    p-id="3706"></path>
  <path
    d="M636.3 66.6c17.7-6.2 37.4-0.4 49 14.4L878 326.2c15 19.1 11.7 46.8-7.4 61.8-19.1 15.1-46.8 11.7-61.8-7.4L694.6 235.3V913c0 24.3-19.7 44-44 44s-44-19.7-44-44V108.2c0-18.8 11.9-35.5 29.7-41.6z"
    p-id="3707"></path>
</svg>
