<svg t="1617185205269" class="icon" viewBox="0 0 1024 1024" version="1.1" xmlns="http://www.w3.org/2000/svg" p-id="1484"
    >
  <path d="M495.882074 667.294941a105.853841 105.853841 0 1 0 211.707682 0 105.853841 105.853841 0 0 0-211.707682 0z"
        p-id="1485"></path>
  <path
    d="M511.6802 0.6396c-282.44747 0-511.6802 229.23273-511.6802 511.6802s229.23273 511.6802 511.6802 511.6802 511.6802-229.23273 511.6802-511.6802-229.23273-511.6802-511.6802-511.6802z m90.055715 878.363023A212.283323 212.283323 0 0 1 449.127295 519.355403L303.490319 269.655465a53.342661 53.342661 0 0 1 19.315927-72.530668 53.342661 53.342661 0 0 1 72.530668 19.315928l1.151281 2.30256 26.86321-15.798126a53.342661 53.342661 0 0 1 72.530669 19.315928 53.342661 53.342661 0 0 1-19.315928 72.530668l-26.28757 15.798126 15.222486 26.287571 24.560649-14.582886a53.342661 53.342661 0 0 1 72.466709 19.251967 53.342661 53.342661 0 0 1-19.251968 72.530669l-24.560649 14.071205 20.467208 35.625734a212.283323 212.283323 0 1 1 62.552904 415.164522z"
    p-id="1486"></path>
</svg>
